<mxfile host="65bd71144e">
    <diagram id="uIV0zjR_PONobQgBO8G9" name="Page-1">
        <mxGraphModel dx="806" dy="1049" grid="1" gridSize="10" guides="1" tooltips="1" connect="1" arrows="1" fold="1" page="1" pageScale="1" pageWidth="850" pageHeight="1100" math="0" shadow="0">
            <root>
                <mxCell id="0"/>
                <mxCell id="1" parent="0"/>
                <mxCell id="2" value="" style="shape=image;verticalLabelPosition=bottom;labelBackgroundColor=#ffffff;verticalAlign=top;aspect=fixed;imageAspect=0;image=data:image/png,iVBORw0KGgoAAAANSUhEUgAABBMAAABVCAYAAAAbiKw/AAAAAXNSR0IArs4c6QAAAARnQU1BAACxjwv8YQUAAAAJcEhZcwAADsMAAA7DAcdvqGQAAE8+SURBVHhe7b0PXNRVvv//CtdK5Oe/AstCSXfBP8QumSyXO6S7GmhlKlKu6yV0WcI/y1osSV4uW67LmsSSLqtmLFeJ6/VrIchW/plk05xYQs2NRgna2FHMYsYyuUS5rtPvnM+/+czMZ/6Dor6fj4cPh/nMfOZzznmfc97v93mf97mhpaXlWxAEQRAEQRAEQRAEQXhJkPQ/QRAEQRAEQRAEQRCEV5AzgSAIgiAIgiAIgiAInyBnAkEQBEEQBEEQBEEQPkHOBIIgCIIgCIIgCIIgfIKcCQRBEARBEARBEARB+AQ5EwiCIAiCIAiCIAiC8AlyJhAEQRAEQRAEQRAE4RPkTCAIgiAIgiAIgiAIwifImUAQBEEQBEEQBEEQhE+QM4EgCIIgCIIgCIIgCJ8gZwJBEARBEARBEARBED5BzgSCIAiCIAiCIAiCIHyCnAkEQRAEQRAEQRAEQfgEORMIgiAIgiAIgiAIgvCJG1paWr6VXhPXDFZ0m47A0Pole9mOuuLzmLPrCcSHXCnfURdMDe+itfMSe5w6FJ+bg1258QiRrhLXKtdru5O8E+64nuVDXfaDqBmcgU2po2lVww6H+btmMJZsSkVEb1dStwkNhlZ04p9or6vBuTnFyI0fKl28VrkEi/430GX/P/Zah6yK3+GJ+OEkjwRBuKE357Grc44MwJlwERajAQf3/g/yywzSezpkFv4Hpk/WITq0v/Ser/TWfa8UsmJgQlNlKcoazdL7kZi9IgtTJ0RDFz8SaKtF4a7bsTInUKXyU+jz0pC9q136m6ErxL6yy6CMaGHRI0+XjV3Sn0AYe5wKlJECeW1zvbY7yTvhjutZPi4ZUZ48F0XK1DQBmRXl14HB6gvdMJZnYW5Ro/Q3k5DMCuzpVWeT2qCWmY7CfUVIjbhJ+vta5RwaijOQXnYRswt/j2dSIxEsXSEIgnCiN+exq3iO9E9/6W6DvngxdHMXqwx+jgFl+YsxN+VZVLV1Se/5QG/d94rAnSJ6lOfNQmzyZjR1DoFu9R60tLRI/7ZjybizqHsqGbFR4xA7YwP+FT2qBxSG25G0dj+7/zHsXBHH/mbK6ox7MPJKaaqhSVjLy3tiJ1aE8zfuwYx77yDDyiNMfhr+iLSoKESlbYWx2yq9f5XgVbtf5WXUguSdcMf1LB/9opGxn899B1A6mxU+TAdd9GDpIiESjOiMSlZHJ2Ao/Qn7ewJm6aJ6OWqlHxPLVYJecmLnCghiqUvEvSOvdUcCo6sFhloL4rJWIjeFHAkEQXjAm3nM2oGGkgxERSUirbwJ3dLbHrmK50jfdRjrGehf3I2vpj+HZq4UtRhh2FmEzLgw6QMMcxXWVxvhk9nfW/e9EihOkWxsxU/wquFF5KYmIT5CrRKEICJhIdZUlSJVKOIETIocJlzpEayf4cN6E3vRN5RVa/uHqOfetutFSSEErtd2J3kn3HFdy4flA9TxyLmEaIy5Ylvv1Jxjit9LaOjqS85MM47VvcP+vxsxYwaJb/U6F9D+YRPar/QCxGXDii5jPfYm5GDV4niEXhcePYIgeoTenMf63BzpGR+f8iI6Go0YkpaFOdGh0pf7IzR6JpbmZYCvg8uYm0/jrNdzc2/d9/JjtbyHrauWI7usFXFZW1C9ZgFi3GzNCBo+CTNnTQDCRuHOW3tuC4f11HvYYzAD4TEYG36lldULOHXkEHisSXjCWIRfHX3jCsPkP/4XqOSOtcqFiA6+GivNU7tfC2XUguSdcMf1LB/MgPvYiHpusE76Lm6R3r1yWNFtrEWZNQbRfUlp6zqJJu5t0t2NyFv6SW/2MtZPcGTPe+xFBBLG3nbFFyB6n4s423kXfpv7EEZfM3MPQRC9j4d5LGg44nPK0dJyCJUZMT5GPPW1OdI7fBxB+2N4fBLinIzjINwcEoIbpb94PoDUeQk+eLZ7676Xme5WVBc/gzW7WhE221tv92BE63QI61EPFFOQPjuFVvYqbPoERFwmXcQ13fjMxJfhJmD6hDtwxR+HuExcr+1O8k6443qWj29gOn4M5r6yvaPbiO1rd+LWmJ7YYthzXDIdx17zZY4Q6DbD1GpmSkMsJkTcLL15LXMTIpLmIP6qy8NFEMSVpTfnsT42R3pJDz1nJ07UvSmstIAnSyxdj/ykET1w8966b2/QCeP23yN/FzPhwxagIMdbb3cQBoQMw/d71AN1HkaDgQnj5dhv6QXCvsTjV9X+H6IHuF7bneSdcMf1LB/y9rsejsTzHZ7TqBbFWctQ1Di6Z7cYBoy83SAU4+4cepn0HTHkv5b7EmYl9K0oDYIgiL5Eb85jfWaO9I0AZwx+hIUeVcVPYm7RAfY3P6FgHqbHhgeYyKa37ttb8FDJaqwVnjUMcQtnQzfcFyG4CZEulQZeF1UoTktEVFQUEvO2oclyEcIxTlXboTddkD6nwltl1WqBse4V5d7i/bei3qTOSsFPo2hgbcGTiWSgpKGDveOAtQ1VGeweiSUa+069VVLUv8OeJTEPW5ss/Nus/DXYqjepfpd/thF6vR76qmKkZVTBpFxkn9eXIC0qERlVbarvuMZqMaKO3WtveR4StRIB8nwe+TPZM/0G+g5W997A24c/n57X73wUN5yTLshcRIf+N0iMmom8qlZVghau5B50UTYZXn4DyvPYM0l1Va43wmLthHHrNvs2EOSE3YcngimpZ5+R3le4AFPVcnafFI1nVKHch8sJe+at77F7SW22tU7zGV23u4cydjWgOFGUR5f/ppXDeEn6vB2+9Bf+2Tr2HHuZ3GXZy4uQ94TL4nJUafUxl/iglPtcp564HHLhqs4k40yod8dxgl/jyWj5c7kYQ9T0YL30St/WQPidveXIU+SW1WuxHianpKKBGG28DqRxj//WTKkPOI7jacWoMfKxU41/su5cLtYe5XoYeZ9yi/isQr0L38tAsb4NXdL2O6ey+y2PDngxp1kt9ShJ+zF0c1dIpyvtRX5yDPvsNOTpPxU/pML/OvACXm7l3pLMdLWL2w08zN/ey5w3eLkAIdTv67YxRqjfcuid5E3GhzHJI2oZ/pW9HLB6rJdlLe2PaHBsG/7cNe7ki5+CNY09o2MfuAzjnTQf2voK/yf2F5teoOr7TnMme0ZXOk+faC9x/J1ZboQ4XDG5VcZ3LrO1HvoSfyZvdUNX7cVwO6d70wYy7Dfqtyr9TqnP7iZsLW9kV/2FP8NbtnJKZS1nhqXLBH4+ta+ruglElgNoYz72cXkWdORfqdqEt7defB4t/VejzFFpJUy3U9e8uqw+jhV2iP3O63lMeDZeJg35c8LHe6u5ov1aG180GQf44DsbyenZqpMXWrGrKDvAUxd66769yXk07f0zxMOc7sGsqVE+OT36Rc/HLzWO/hDyL+Q9hgJDf0wv+QtaWpqxLysYOyqr8MqqnyN9T39EaiTvEkMk2YvIkbhNMzqCDRBN25A3OQVrjwWpTplowPOhf8ai1XulDsw+17AFG+tO47yF39CAGsM/nAY2JT+D5u/JITthiIwI064X1jGatq5EcoEB/eQEnPsyELJjO6pfWcNk4QBCIm+XhJVNIQ3rkJychuzsbGTn1+JGORRUyKC6HMnZm1lbmHHyfDfcn3vK71WCybq5WMrutbxoF8yNf8bepvPSdYlvv0D7u62AeRuKXm8RBku38OPfYpORzp8vu4AprO+h1tDiMMl04R9Nf2NPyWQ7fxsMFnZXfizMtGim5D4ula0MpnF34laHKrV27EdhWga24mfYc6wZLYd+i4dvex/Fkydh7qGblDbgSvMfNh7AF+ctMLFfaqxpwMdOxtQn0j7ZcETcptU6kqwkr4ahXxJKmrmcbEdWiB6V1f+DVclPYU/IXRqhuC7a3YsyKvLrkkjMXpyI0Q7x4b71F34k2GNMtpay51jOxpqblZAywdjISke2MP58gfNdHltchRfy7neduqf35cKxzrqlvdVdaKt6FimKcWbA5rJDOKWMIZuRMzcbRTxqy+6aIz1ZL73Utx3hkzozUtJ1L+BY1wQs2cfqveUo9hTeB1NZNtI2OiqX3siHFvzIwHTEyuPe8iLUT56AkV/8DTXVR4GYOcit/AsMr/4as01leHrJJuxXnCP+yDpTxpiBkq5bCf0nUVK5mnFsXzZCD6zG3JzNrpUwZTx/G1//MBcH+Xh+LA8Rdc/gmU0H2IgXjgTVtoIeHac8zmlM6QlNQE7lQRytyGKtwGz2zAocFT67H2uTbhc/JBBAHXhEJetfT0LuQf77e7Aq4iB+/kwZ/sq3G7ja+uizzHnBpU9wfO9x9sJV/UoKfnoKlujPYtyS7ew3ebvuQUFoPbLnPo11Gkazt2OSZxxlOERJTCnKcBoW8T7O32jcgbKD7bZn6W5FVckOnPhCkq/dzehwVAyUHBXqhKi9Pd7xZ29CDU/WvfYwuiYswT6hTl9D4WwzyrJzsVEwgvzRea5wewnz/ESp7vj4+xEmTwjFF027UV1vRUxKLiqbDXh1ZQKT2RVYsu4tdGjVkU+6oX9zundtIMMXgUqQtmgnsPw1HGOfPbTmYdx2pBiTY5fh0OBbfdL9ZUTdJYU9AxvLdQXCfflYc/T54di66AXsdnJ++Nq+vSDLgbQxXzBKVunIN/6b1O/4b25EVnK2+Dwnz6NL6avsGnd6pM9nY/w3mCCUmY3He55jc95mZKfJSXQDGCvU+DiPXTKWY9o4HeYu5WXiv2txHVnm471tXOlx2DUB3OF2JK3Zjp0bf48VsyOl9yTMVchPL/Fzpae37tt7WE11KCvjEzGjh7Jzc6Ffl7MCdcNzUZIzC9HCvr4gBI+Ox+SOchTsakeYhqFpC5F0td9SGjwe+QtCCyqwOTdVOWXC2nEYr/GIhtZT+Iwpc9aOerzxaSKWZjyAH0YOYZ/QUoCZcAv5GVz8nqdTJfhkuO5pPFIXjufZpKgk4Aweg8mTP0d+QRX7WXW4TxBC4nNwSDk6SwoF5fd5+S9gmpSoJIYtwIqHojzsR5bv1YJmwxZkxXHV0oLm0+fsO2O/KDy8rtRZHl0hH/927FWsEO7JRJcpaiY7S2Uo4nM2oSJLx8o3GIMG3KA6FqYBFZkT2Ge0Voku4NShN1BlZoPN1HhpK01/hMakYsny6baEbtYzeOuNL/HQUjao/jASgkRqOXvkfbKacitNJkxWhj//O+TMiZFygIRg9OR70JFfiF2uQnFdtbvHMnL5teCBirelU11U/4QJPk7zPHDf+wur/9xqdl/5CB5RxqyWBrz8RhDSKv4sPF9YahoeGu+DeuBJ3gOpU7dcDrmQ6kw+1lDYW92PlWcrCg+PxwaD0Xa0nAAbG4zbkLMBWMauNe8rBJN2F/R0vfRS31YjjV1zS85h1p71yE2NR4RQjyEYNXa0ULdmSye+Fj4s4VE+XCEfGSgf+TsBD0Z0oPqNb6BLmS7JO2/vBzCHJ/Q1v4kdh2QlyUdZVwyUtzCC97UMnVQu1p8ipmHxsjkIayzFUxVHnY1Wbrit/JnGeB6JOWlT8P6uN5kSpzq5qEfGKe/nNBseVuIDqQOP2J7XSdbnzMf893fhdZ4vQWvroz8y5wXuTxexKfi1I3JQ8cxjSJBPpgoejaTFmcgMY4bGU9vQaLfC5eWY5BUOY4+cmLK7CVtyKmBN2QBDcxP2FU5nF1VGNa+vV47izvQspE6dBKGXjxqMEDbdqrGePY1mJl6ac0SvjHfs08KctQwlloewZ3MOUuMjxDkt+E6MFfStTlg6v2H/+6rz9IH2kud5pe4mIuLL/XijeyJSZknyHhSKmNQ5mMWGZnPVGzh0ysFglmTde93Q9znd+zaQsLbj0A4+ht2DqZPHiJ/l5XgsC8t1kX4kLmUy01aDlSnLUReajX3qZ2BzRf1rb7HfaofpM/USnj/t2wuyHEgbh8Qj9xD7rqEUs9mfYr/j5arCG3gEFUcrWBkikbpiBsYLSrykH8z9EyyzNqrGeDYej/oeIoWB7zw6v+a93s+xQo2v8xijX3QG9nM9VXh29oaryDI/7i3SF8Zh1wR2CyYo0VMfQsba7dhTmCp4+RXslBkf6a379gqyMc3poYRJgtDnoWbkChQ/kSApGjKDMSKSr564UoLkFRwtZVX0qqbnNyGhMA9Lk0aLg5aAFd9YzuCUORKzlz+EGHbjby7chQdnMaNNUYC1lHlZKdPOAK1ELWgqKZ0wbvk10mtGobQ4yyERUj8MGzFSGNy0w3068XHTB1KHDUbH/lp8eO+D7B43iRPvoV8jyYetJkGhP0DSlAj2SmtwYR0veioenjrZt4RpwdGYx5VO/rq9CR+2O0yWQcMxKSkBkU4hv+04/r7FxWB0CV3nv2D/X8CZdosqSuQmhI+Nx8Py87H5b8yD97OB46LkXGK3c3I+WZWQa+cBRZpM0vdhZOlqPBE/3L5th41ApNA42gOm+3ZnuCqj9VO09nsIix1/jw/Aq1bj8KQCJ0dCQP1FWpESZCz4M+yv/AfufTSO3UOckA4VJmG43f3c477cgdWpey6XXDC+OINW/sWEaNz11UGsKwvBk8/MR0xoP3zddZ49gfi9Oyz7UfgCkLd5qdC3v2XXTrJrWr/Xe/XSS31bHrs2A1nP/xIpo9WSpXLoOhiEHvuFR87jTCsPxT+OLbXnJFkVr4iw8W/oQPa/GYbDf8fn4psiXsm6XC4DU7qzkeN09j7P8TNYNFodHaR8y0jhr5BfP0ljPFehLnvA8ujLnKb6orwSrylTAdSBR2zPe5+WrCtozd/+yZxnmLIpnC6ipb/IfbMUja5yQQ0IwVChMo7huElleHk7JvnC1104xwYYQQ7A5a0c55f9RuWQ4agSmwYNQcyjjzJZtConqDjLl1x+F3NEj493DGnO2ox5eN7xNAlF33I0KLzRefr1rfaS6868F7Wf3I1HHeVdfhY2nh1u5b8tE4Bu6O2c7k8bfNuN8yfZQITP0N7xlfgeJ+g2jE1M9DlxqbBinP406vnxpEunSY5BiW/Oov3UlwibnYaUGHmMCqQ/MnpDlv1uYzauC6cWiP0uuONtVH44Qfy+4Gx4DYVCjjy5zDvYwLcSuQ7jsc0R6nDyja9jhYw/85gCe1bTh3ifiYimbPp97z42DmvgKBZ+EoLRqStRYWf4aygzPtNb9+1J5LBVjj8rio6wQXT7BhSZ7kfBL3+kYcjIyqR2OKKirGocCWnteAt/WL0NZl06lmgoSMHRC1HZ8hrWCsYa+3vkSKHTKffUUryU/AxaGaDlSVrq0HZl4Z2D55k4g9SCn2Oak+F/iY1RpwTlSDMcWFYGE8bjNlM1tuEhPBYdyHncN2F4+GjhVXvrGaiHPAHrSRx8ZwxS45y3o7iG1eFtI8XVEM1w+U40v3sO6amxdgrMpbbD2M5DvDTDXG9GxIRYVitmNBatx4uqkCa77TLBIxDBByrFuaSlKNlW55wGVCHLeTlMTJn+5TSNpKfyBKK5tcVdu4u4LGNQBJLmRNu3tztHQoD9RdxSEY6EmCEwvfw6sCA1gCMqPZQ7oDr1xGWSC3ZX5diiif1xbGMTJv9ugVRnF3H29Enxe+OseMvummzsaPxer9YLp6f7tjx2HWDG5jwsiFMrT+xa225sWr8XiMvAkw9EqK557hcekcOxMQUr8lI0ZPUCus6JSm545AioTRHPsm4rl5BEWLM/uYIr/6uQXQUX47nc/g4KaYDy6NucZkNRQJ1kKpA68AS/9zbkZm9jlaQt68pz2a24cvyVOS9Q6l5jQUDqm41sFtNuV3d4OSZ5jexU4nIwCCert+CdyXk2h4xSjruVsGbe94ODmcS4ky/N78n0wngnz1mNQ5CaluJwilkX2qrLsZ4NEnErMvBAhEqH80bn6WvtJdQdg8ll3nyHeZ0jGXw8IjlyhNpg9l839G5O97MN+t2BCdN5ROUBFK19WbXNKRjRCxci3klfcwMzLPf/oRRV5ulYvuQBZ+MwOAYZlYdwaO0c27WA2rc3ZNnfNubIthPrd7f9Ay+zYXHBYxrHKMplDrsfaQsmqRwBDKYbVm+qYHMqmw+fTEKEcs2fsYLj5zym8A3a3q1j7cPlz3GbQgD37lP9WhunqvAfZvinZGC5ThVHcLQdHT557bXorfv2BgMxNMTegPcVq0mPF4pOuE7iqLm3T4YNwi6PhDyHxsoX2cA1AZmZU1WdzhM2BdjZ03YRHfV6YcVI0wsHN0egWU3Y/QLrHHFzMV+nFRomeeFdhAOLShcbFCPPoU4fhgVaRohP3IABgwazDqcFK+f+/eh6xJd6EwkKH4sE7kLHp2g9Y79fm4fg6vsl2U9WyoDCyqa5whSEkLgFeJ5vj2CtsvmpP6C6zXWgrTtHkBIC7HTtAky7y9lEOx4L58drKNOqSUkzEsfT0XeeyqjCrSOBPUlA/UV+jrGI7HwH+hEP+ThIO+Ku3IHWqScuh1xwZMPu+0gIasOJf/+prc7kCTqMjQWdb+MdrWtOk3dv1wunh/u2PHZx5WrmJNUz8z3265A1g680/RqvlsjKmEygR0LKChKr4tS5eGi8o+HDsJ7D6WYLexGOieG3qH7DC1m3fgbD9p2sXO6SCMuKvD3WjgZs38oMcFfjuTtjjuGfPAY6p2nIVAB14BHl3lNcyLqbudZvmfMCl0dCsr5h2IWt3Onrcp5myM4+J3wbkzwjjz0jMPT0G9h86kf4hXreV7bCOKxQcpQyasiXLHta3+vx8Y43JZ+zuLPqR5iZoKpTIUHgcszgUTYr16Nkkb1h5Vnn6avtxQygtCSM15BLeXsJMBrhw6X5OSDd0Ls53d824CH0cem54rY5vs2p+HW02W2f8hY2ljf+P6yuakVY5nxMt9MBXRFo+/a8LPvdxhw5+oOVo7PuCEYsuE9zTBT1AzMbE5OQoLQls3VYGxZnZSC/fjxWvvpbLLJzrPk3VgQ6j7mMaGH4f+++1q+10Xwmvwkahcnzfiz9wZgYjuG+a0zO9NZ9+xxMOar6X9bcrpI4qpRJTa+Y3IGcBV3J66BpILjBXefp/giH6prZ72l54RguT5XgA+kuwfOrm3Wf5gBk+67jCg1HVrqGYEjrpxiWotMYhHzFFrrq6Kziq18b34nADC3l3RP9bkE4k1f+zGc7v2Yll+AhdiWfIOlRB0+uUt9u9lQHDUf84jwU8n3ePI/IM1tdJAJz5wjqxIeH3kEbH+QdowO6jqGKr3Lp7sdUzTLLcuYiEsfTaSLelJEjhIS5diQE3F/k52B6QatpOFICdUi5K3egdeoNvS0XHMVYfRNbj4XbK7Sf/x2HuVIe8SkOnRiHpaprLhX2y1Ev7Fs917flsYsLFW/nQUyp4VnWeUbqGUhe3YEppTtRvWYBYuxWuxie+oVHbKtH9galDaWeHZUZL2TdeqoeO5hyy/ul6yTCsiLPbqU4rDtx4vWdzKhnho7meK6qM02F1D959HtOwxdoPcy+p7ES738deIIpvyf0qOT3diXrcl9wmk8DkDmPqMZIJweGvD/cVbty2PfllUmt6ESvxyQvkMeesM9x4K8DkbY4XrVKKZdDy+noroxnsL+Mr2y6iBbq6fFOmbPkZ+kWs87zzPexM7DakoDSnf+NNQvvsV+B9Ubn6bPt5WCwK9j6va2e2PMJss7e8kc39GpO97cNRIJC47F4VQ5ms98w7yrBMy82aJwO4gGrCXvLasSxXMso1SLQ9u1xWWb41cYi8n3DhpyGadg0TaePbUyU6kk4AYKflJCJ2ORSWKYUYGf1b7EwRso7IOPXWBHoPGYrk/PiVQD37mv92gVaTxUAtr1MHMcwS//prfv2BLYQWuArnOsS4nn8Qx4kNVdRGZ4GIJfKqi1iwddQYaVzON2TdY6/mmAdysurlSxE7rDsq04KomwguDImL8C0dzvKNL/LkVf4voQ5chqSvfLqeuYGZnCM4i8unEfX1/LswMq5x4R/X/ojPx0WN2NQKB8Y1Pu1O2F85W0MznIOU3Y9GDkQHImU3JU2D7lWIjDFaHeUF67YHsMp6404zQcou+gAVwOtDfdKvLt2F/GqjELypVWovGWJ0x45hUD7i+ydNl9E5PT7fI46scdduQOtUx/oNbkQUdrOaXWVlVGezBr/hVg7ZVdWKBzLf/nqpef6tmzQM8ybkT5xCrKq+ErEEMTmVaP50FpkJEVrKKGe+4VHFEXZVV2ojHLH1S6Psq6aIzQduBJyn1PLTtcJ7OUrLq7G824jdmzg/ZChqZD6N075O6cp0UpOSlcAdeAR+cQnV7LO5oQdW4Q5j9/Xfj71V+a8wfUChCIzbh158vdZlbmSa2/GJC9Qxh7zBXz/kZkOc6c7ncJVGS+i462DODOKKdjsmla0UM+OdwzFoGPFKEvHRH5M4Wmm1A+ahDyDEYfWZiBJTshmhxc6Tx9tL5e/o+r3tsgid+3I8aAbejOn+90GMkEIHv0Qcp/PRhx70sbNxahodHNcrRZKW7k6PUWDANu3x2WZ4V8bc2xjrdn8PUxP1t6aZYtqOI6y9HhEZVWxuSAIg2KfhKH5NazNSJKSD9vj11gR6Dzmrq4CuXcf69eu0H4uV/CQY35OZWK+F0c0TsH8H470LpSzt+57WeiHWyLvljKdWvD+8XY27PuHfCSedtRBF9pqq7FHuLm2V0w5Us9JufoWX3eeFwX11kEY6LLVu3DK9Dnr5jKX8HnrB6JyaiegF2FpbEDnqIE49YYrY87NEWhK8isthY0NMm1vomoPnzg9RDywjunrMZzuCBo4CLfyF0pWWKZs6F/CqwGFv8sJ0dhQc64LX/O6a3gV+hEpDgm0OCpjwFEGrG2oKqljEmZD8JDnZbAJjU+Ke1DPj5dUI3ubHYwPfgzRm523YNCpo6x9HAc3ud1cDFysr9ZWHRBlXDOng6ej79yUUUZwJPwaG5COEqeEijYC6y824871qrgvuCt3oHXqhssmFxyVseVUZ6rJzClsU14J7mlZ856e69uyUs/LyY8UPITK3EeRlJSEqXYK6CV0d6sdy576hRfI7ebCeLZ2HEQZX8Xhe/3TJtoZ5Z5lXTVHuKxrlcEb9zCmS0nBFIVPc6WQ9eUXd+HSrJ+yOdKFIe2XPPo7p7lz6vhfBx5RDBgtWedzwjZUXpqCFXw7p9N86q/MeYG7IyG/7oRwIrQLfYPXZbexFhu4s48bKNPHizLnz5jkEdvYE5a6GGlxDvt8lYUUDRlU9AX7MvLTqvYxIyey8x9OsifS0+MdQzEMmHFV0YCWlnLkpk5nbTnZ3iiyfo1uxenJ8Ebn6VPtJeuOrsY7Nv7u/x9hJdauPQPSDb2c0/1oA6upFiV6nntJpj9C4x9D3oop7DUzdGsO29WfR5S2GoJBA78jvOUMK++pU7aoB3/bV6AXZNnfNhaQf5PNCW5W25VnDstCxdFmtFTmIpWNe0lT7Z2n1u5u1Qk2tu/5MlYEPI8pjhPnMT6ge/epfu0arRZ0AeuoTa9jPT9vlIdJzFiOElUiBxF5vxJvRMc9nazAfI9LWiKiohKRVqyHqZt/u7fue/kIipiKTOGYOzMat+6CwdujK7v/Dn3NEWmwcLcPk++LrMSuARORzHusC6+YWEeyMPKB1YBGx1CW+gYc03o+fu7py1U4ar1JJRRyOKe9R59Pwnv+LxqTvmMROoh2CLm8d0gehL6Ese49sawu9/bwttwP1q+QkMzjULQiHlhNyUak13vNvGTAIIQyXY57/zu/+hcr59vYdiYJeUJGWX+xRa6YLV/ibNtuVHw4CYs172nbU625SvSWySFXSBCCx9/HPssfug3tHWpFkrW/5G22U5qtZ/DWnq8QPykYZ4QwMMfBTU5YqAHfT/hiHQYk/BubOJicaeU7cNfuAm7KyHHrSGBlanxLOvYm0P4iG3eOHnM/cVvuAOvUHZdNLjgqBcBxwlOMkulY7pBQ1HXeil6sF0d6oW+bm0/jrCLXKoQzpP8T87Z/xKRUwmO/8ITcbhp1LyCHUWolaPJG1t3llRBR9nwyhUWd/FHO9O0MT2T2J+yJ/g9Mw4dM6dQypAORRwmf5jR5lV9LAfa/DjyiZIF3hM15ba9j3Z4xeGJaf9RzxduVk5Xhk8x5gS0TutQ3u06grlHSv5Q+4wIm00p+iRXLMF/es+zzmOQN8tjD5g2NLT6ysu7sILLpC3bjD9O99tcPxIxJ3ajnhoWmg66nxzs1GsfUSnAn2taVT2H7x7aM7F7pPH2qvdznvEJ3M16vfBNmxySnAemGvs7p3rYB++3PPsZb7Z879K1BGD/1fnEh0e88bu/h4DFHe4dzEZamamw/+o3NUepv+wr0hiz72cYcxWk0B5nTvUgYaz6J02e17CpeT9uwct52fKzUv39jRWDzGEN2Umk4JgO6d5/q167x2IauMWBz+s+xstwgGe9cgd+Agvy9QNxKbMqfZt+IPKnK6tUo40kkWDM3lq3G6t0mjU7UW/ftTYYifumzWMHDR8zbsLrkFTS53Y/CB8Y6lL9yFrGz7pUMJpsiY66tQVWTRSiD1dKEmuJ8bOqcisfHfo59srKBM6ireY/VjoTiFZM6dvcJ7P1wiORpVUVPCM+3DfUm+ZusMxr1KC94Ca26VMxRr5Yrg4zNoy+c2XvoFqROvQXtwgqzZBR2G1FVZRRXEfnn5DAjYRDqj26jAR8O/65YVrlzmN9CTdXfRIWaKUPGmhJkb/oKsx8fizP7WFkEBRLoqNutOjdVdpq4MEYDQTnC5guc7zyJ/dvMzjkNAuHUq9j0eijStTLWchSPqTQYdTdha0kdOljRhQGwtRHvNndKH3bAKWRXYyWUG+ovH8bw1ESEtqvD07pgrHodRqG/ydsyjqO2Zrckx1xGalGcXYHO2Y9i7JlGZdBDhwE1qhA/t+3OcVNG944ELiIN+O8PBmK8MAEE2l8k405zRcp33Jc7sDp1x+WTC4YyHjgrD05GiQIzFuWVYLkdXj4otncv1osTPda3ByNax9cPGIb1KCiphVEZ66WxdOXPsKw5Huvnj1ci6Dz2C4/I7aalyDCFpGotlhSdwezC3yPf0UHilawHISQ6QTgPHPVGfGx3TjWD53jJXY0qsw5ZFb+xS3albCHh4/nev4tzgJDI7Fd4Rkh8NQB/56tbwu/fAKP+iGq1xF959HNOc5wneV6Wku3SPf2vA4/cEIzBo/iNuawfkJK2SckTn/kEM3+RiO/8na/y8XntewgyHkSDsmrkn8x5xjEstxPGvW0YLkc7hERBN4svknyApo8dxxf2WSEz+ZeIy1prl6jO9zHJC+TIDt1PNU5dkcsh1d0JAxoU55LjIgt7i8vXK8cxIvkeDDvFjXTpmuMc0ePjHUOpUzMM+YUoqWmyORS5DqQvx8qUZ9A86ZfMKJBr1Eudpy+1l2IsajgBeSTyqnwUme5DYUWO/RHegeiG3s7pPreB6IBsPXAEzfJc6ID3uVMkbvkuJgkGHauL1euxhT23ojtbjNCXr8G61hjMn6Pa4uln+wr0hiz728YM+Te1nH82VOMx9iK/oBQ1RlHP44j19F9IWXYCk9bPQ7Qy2fo3VgQ2j6nqSigT+6pxO0r0Z4TnDejefalfu8FVK2rAGjZmGhZyg1mhFbuKMpAcOw5RURORnF0DZBZhp08ZhXvrvpeZ4BgsKtmA5zJ1MO/6DR5J+S+U7210iJLgE/9B7C1fhxePheLhx9RJQVQdx7wLax7RYVxUFMbp8tEQsQzPpH4XEEJ3uNJ1Mz6rPQgk3G2bWORQUQ6bLBvf7EZiik1ZDhqZiEwhmye//RosSp7I6jaK/YuGbslBDM5YjlTHsHvFS8yUniNvQb93G7bsuREPCveVV5gHYmjwOTTus+CeB8ZLv2fbHsERwlW7JiJFVr6UzsHaec186Max5xinw5KGMch/ZhZG46zo4Yu8EyGf1WEPfoB7lQFHDrtyFfITAIrC9ykOrA/0mEAZ2egNQ9ykDOT+wnPYPsdqfg8vbz+N+xZzjy73jPO258cRvWQbUPlq1Mubsd4QiaznFyDOblC2rfr+03QE+/WvY+uWQwh+8AFWJjaOSWFgNw29Ef/XaMCZe6ZIZbUproIc66IlGWlERP5TTEaCpHYPR0RIO2r3XELCvfKA7aHdGS7LCO5I+E+kbz6Axs2LRJkQ5NP2b5zu1/gkPFyS+R7qLwGGz4t4KncgdeqOyykX7LYulQ5Ho0R6W8BmLEbgH3izugV3MSNRdAj3Vr1o0GN9m8ld3E9QkMr3WXPn9QrMFZ6byyh79rk7cC6+ENVrVMd5edEvPCIrykzFeN/wtmJMigrVaqTnf4ZZpeu1E5V6K+shE5FWsABh5hpseHG/NHdJzp2sZSjCLDy38znb8VoSQSMTME+oDzae589ELK+L2HRUBklOwW8/R/tR1o43sd7XdgxnvjsWoeJXGf7Lo19zmrx6xI9OvqMTTbXvYUiaShb8rAOPBIUjcd79kqw/jRmyblN5I5aV8PPGv0VHexu7yuZT1k8MZ+4Qzn4X8UfmvEGeSzn/FLYudiUmq/rFUMSlLUZq2HGUbdgCveSsER22T2Ju0b+Q+dwGB8evP2OSZ2RnnGDUOH1VLsdADOr8CO9aoxCnGC/yGeta8nVRMtJvwq2D/gXT/r/h/9PZ5oieH+84cp3y1waUPf2Iba5jOtDcynOI3/TfWGPXj73VefpQe8l1Zz4Ow5tGyViXHF+rfoX8Mz9CaeVK5/4ZiG7o9ZzuaxtIum5jOdZufE019jL9ZVMFDHHZeD5dva3MC9h4MDlznhBuzvWXokXJ4rjJ/o3TrUTd4J8g32ks96d9RXpDlv1uY2U+dLGNWY08HvPXjWV4eq6o54n1tASV5xKwqfpZu9/wd6wIbB6T64pzAWYeVfLRRCUCObB7951+7Q7f7iQYzJuwsTBT7AQKOmQWrsfGndWoyJ2lmRCDnx//QEEBMgWnATOsMgtQIJ+H3Fv3vcwEhcZgTu6LMOx8CaXLQ3FgeZrkEBGFPzHvZRw9MwBj5z+BnDkxzkZlSByWVpZKZWGlmb1CzCorDSpBIcNYpzazzvA3mGNnYqra2zfwNkQK32OG//tf4q6ZcfYRHDyb5xPPYWfpCiELrQiv3wrs27dao8Mzbvk+5kjHidQe/gS4MwmLHpMz3PZDyFAu7l+y5zmDsOTJKkXmBgwccZfYlv804X3LKMyMv13VJjySoxilmaIiyAqKFUI2akkZCgrG0Aj2kK1H8a55PB6dqlppU8KutELXAyRoAAbdygfaMZjy5M+dvKn+IWaSH5JagGKNQd6GFReCh2Eibxs2ONe/fyNmLJLPHr6Is58OQ8HbTTi2+j4MeLcYk7lMjUvB82cn4llN5fZWxM6ZzdqAKZ+1R5nCFIEHF6Uq2b5FWWLDXmsT/hF2H5KU9meKa/zjqCzNkvpiJGavKMVOZcCW270Nh9/tROyjakXJU7u7KePn76Nms2xuucIhtNHv/iKHVrMJNNDweQFP5Q6kTt1xOeVCVgC0lA55gnZe9RDKNpi32RCMGBqO2AfU40Rv1YsGPdm3g0YgKb8UFer5io9h61/CTsOLyHUa2z3Jh2eUyIa4+/F9y58UY3Kc7gU0DZ6OTfx3k0Y7KJ8cX2S9P4YnrUT1zgJMsZRKc1c0UirPInrhJhgqcjFHKzEZq49pTxQKjnSBuExmcLM5O0ca724YhvAfMkXq9i50DpqkkimOv/LI8GdOCx6JmPvYs7Rvxdr19QjSJTucMe9nHXiE3XfaEmx6TpYZ9pzPvcru9wvEC7/fH6Hh32OtdCPOdQ6DLum79m3ps8x5w0CMiBwjvPqnqQWWu36EeId+ETQ8Caurd6J0SgdWS86acSnb8EX0Yy5+158xyROyYuzK+JAinMJG4MbbxmCyXfuwep/wQxfyxebmQbewOr+AM03N6I69XyULvTHeiQQNn4b8ygoUyv2Fweeu9Rt3asuXDzpP32gvm4Eat+h7sJTIxno0dGubMDhpDStnDpIiNPqn37qhb3O6T21gPYdPb1yGt5v3YLWuP94tThHrVbcBZyflYKfgDLTvN57hOReyULKzFCt4hn0Bbr8UomLfdqx1ciSI+N6+nN6Q5UDa2LZ9Wmsbsz18PM5BZUWhoueJesLvXdiFAYwVAc1jVgQPHslqg6m27x/G+0GTsUgdVRLQvf1p997o1+65oaWlRUwwTxDXPd0wlhdCP+GXPd7RCIK4klzNfZspyg3rMCO9BpHMUC5LHU1jE0EQfZRzaCjOQHpZOAr3FSG1J/NaEX0EamPCHtJJCELAiu62A3h3WDoWkyOBIK4hrva+LSeU0lo9IgiC6EPIeZGcQuqJawZqY8IB0ksIAhfFzLnvf9c+4Q1BEFc510DfdpfoiiAIog+hnDyhuWeduBagNiYcITEgrj94NueSDCTm69HRZUJ9+bN4ev8IPDyLHAkEcVVzzfVtK7qbj+BAO1Pc3Ga+JgiCuNJ0ovndRvTKaVtEH4HamHCGNBPiuuPSidfxX5sNMFdl476J2ajtNxfPuU2OSBDE1cC11retlr/hlUrxDOmIocE0YRME0UfhUWCvoXLrAfY6FENDejhBNtEHoDYmtKEEjMT1R3cTyuVjvvLSMcuv7NwEQfQ5rpW+fcmI8uS5KGqX/lYIg46SMBIE0Ye4ZCxH8twiOA1XmE4J+q4RqI0Jd5AzgSAIgiAIgiAIgiAIn6DFDYIgCIIgCIIgCIIgfIKcCQRBEARBEARBEARB+AQ5EwiCIAiCIAiCIAiC8AlyJhAEQRAEQRAEQRAE4RPkTCAIgiAIgiAIgiAIwifImUAQBEEQBEEQBEEQhE/Q0ZAEQVzldMHU8C5aOy/B2l6H4nNzsCs3HiHSVcIfqE4JgiAIgiAI91BkAtHLWNFtasTe8jwkRkUhiv1LzCuH3mhhV7zAaoGx7hUUpyUK342KykBxTRMsXn25j9DdhHL2/InFDcxEc0MAZbVajKirKkaaVMdRacWo8baOr2YuGVE+bSKS05ciOzsby4s+wnRdFBm9gWDRIy9KXaf1GBURhmDpMkEQBEEQBEFwyJlA9CIXYWnYiKzkNGaQ7IJZete8qwjZc3+GlVWt6Jbe06S7FVUrf4a5W09hTF41mlta0GxYhlsbnkXOuvqrw6HAy7AqH0WNQKQ7g8zvslrR3VaDlSlLsNX0PeQZjGhpMcLw1O1oWPI01jV0XNsOhX7RyNjfwsp8AKWzw9kb4Yi47eo0e62WepQIjqQslBs7pXevAKFJWMvkr+XETqzgVYp7MOPeO67YZNFn6oUgCIIgCIKwg5wJVz1WdDW8hJKGc9LffQVm5Bq34emaECzZd5QZe9zgY0buziJkxoWx663Ylb8Bu00XxI87Ihjhv0J+/SSUFi/HnOhQQViDQn+A1Dk6mDYXo6Kxr5XZAbkMu1rZH24MMr/Lyh0JtViV/jTq7ytAcc4sRIf2Z+/3R2jMA5gz6xw2P7UNjV3XfHwC0HUSTfXtgC4R9468SXqTCARr+4fgVUp1ShAEQRAEQWhBzoSrnW4jdpR9g4TowdIbfQTrZ/jrkTDkP/MYEiLkoHNm5EbPxNK8DMQJfx/H4dYvhFf2dMK4/ffMCP8SuuX/gWnDuYEsE4SQMdFIYN+tNbS43zZwJbGegb5wNQ6PScZs7jtxaZAFUFbW9tufKcEu83Qsz5yM4Xa9eRDGxNwNmA0wGM9L712rWNFlrEetOQy6Gfdg5FU6qgWFJiCn8hBaWjYjI3qQ9O6V4gJOHTkEA3sVnjAW4VewTvtWvRAEQRAEQRAy5Ey4quGG6AYU3ToWY0L6WFMGjcDUhQ9gdLDjcwUhePx9mKXjFrYWPKKhGmuLDgBhc5A5PcKlkJotnfhaet2nsHagYd1a1MXmIyfmn6g3s6KMuxO3OhUkkLJKbd9oRljmfEyPcLVy3AlL5zfS62uV8zAaDDBf4XD8a4tufGbiYQkTMH3CHegnvkkQBEEQBEEQCqR3X6VYLU2oKX4Sc4tOQDfpu7hFev+qIGgABt3Kjd9BCB10s/iejPUzGLbvRCPCELdwGmI0nCTWrzpxlr842o6OS8JbfQfBkfBrbBicgWdSh+MfgpE7AbO0kgIGUFZrRwO2bz3AXk3BwunjNRIO/gtfdX7J/m9nX/0cfa2aepRLn+D43uNA2Cjceas6soPwm64WGGp5neqg62tRTwRBEARBEESfgJwJvYCQWX9vOfISpcz6UYlIK9bD1K3au95tQoNeD73+FRRn/AENyr52K7tkQHneTPF7JQ7J97ixWpKBcbpH8HQZD0I2w5A/A+P47+TpwfP389MT9PzePLt/RhVMyve7YNKXII3dN6OqjX3SHq+euyewfo3Osxc0DRXrqXrsqBJzDMyaGqWRsJCV77NT4J/wnouwGA+yOnmd1WsK0sqbnBI/Wjv0yGflTszXo8Pv4nbCuGU1NiAdJYtiEGw9h9PNFpcGmf9lvYBTh95AFc9oqbsfU8drhX7LK8u9CJdh5QSJmcjb+h6TVS5/DajaWqeSO4Za3tN+hSo5VwY/waJGukfaH9FguSi+z+HX9JI8Ol5TIe/tD5uVgOiQS6yta308EUOUD/WJI1GJeSjXG11/j5WnXvk8K3u5HkbLBXQbX0G5j/lLhH6nVTcC/IjGOnZtL6qKf4Vi9b3Vz+CmfmScTvwQntug0b/lbSNynaqnCal9izOEui3RSvBpbUNVBqv/xBLVuCbDylO/VRljlJNdupuwtbzRbiuP63pR10mG5ikpSn/Oq0Gbq/FLOD2Fjwl8rJXqJK0EelOf3TxFEARBEATRpyBnQk8iGUbpuhdwrGsCluxrRkvLUewpvA+msmykbZSU5a4GFCcnIz07G9nZBShTtinIpx9koEhI2mdG4+YdOHhKZVwEDUd8TjlajlYgk+8UCMtCxVH+Oy1oWTsNAxrWITk5TTjSLTu/FjfKe8gFJ8RyJGdvRiO778nz3fhWuCHD2+fuIayn3sMewxCkFvwEcXaGim2ftuscAxdx9vRJVgLGxHAM9xh/fQ4NxfOgm/s4q5NfsXo9jsat+9HkYOR8a2nHu+ym5qpKvH7C7RkTLuhCW9Xv8cL5n6LkiQSEsmKJ5WQ3jRyJ25y2ewRQVusnOLLnPfbCTY4A2ZGBcPbVW3o4TJ3JadM25CWvhqFfEkqaeXLN7cgK0aOy+n+wKvkp7Am5y/ZcjvL+6XiMDWfllU+weLqMySSjcQfKDraLxqkQ4fE05mYXYRevAPU1O+R65NEfI1j7PYuUuStQ1ijUGsOAsqeXIWeLswNJoLsN+uLF0C3ZjU/GLcE+IVHoUewrGI4D2Uu0T9IQ8mFkY9HW72D5Hp5c9DWsefhWHClORezcdzDY69MkumEsT8M43VwslevGdIcquoLL7mPSEY3LkV8WgpgxouNIOOEgKw2L5FNSXNYPg/Xvpq15mMz7N3RYfUwaL47mI3TrSqzebXL43jcwHT/G7hvmcAIJH5+2YGPdaZy38F81oMbwD2fHnEu5v4gO7sxctBNY/hqOsWc4tOZh3HakGJNjl+HQ4Ful33JXL59CnzdbVScGmGvrYbTrz1Z0/8OIt9kjmHdtwGZDh/S+DHce1aI4fT7WHvsGE5ZsZ/XRjGN7nsNs02Zkp72k4QQhCIIgCIIgHNEyQwh/kI2fknOYtWc9clPjESEo0iEYNXY0uKmo7HsPiUfuoRac2LmCmXrMIBS2KTAF2LgNORu+QcpOA5qb96BQyCvwBc53OQapu1o5DGK3zsGhlhMwlP6E/R2KcXcORRB/tpf/AqRtxNGKLISFLcCKh6JEA9OX5+4RzqGx6n/RmpqNX04bYS+AipHsLumbbcU9LHQQBgiv3DEU8bnVzFgwwlCRLSZ+NJ/E6bP2q7j9xj+MdaUrxGSJPsMdCWvw+OEfIH9xvOBIsBm5Lgz+AMqqGGuIQMLY27Q7cbcZplb+GY2tJAHBDcrNyHnkLxj+/O+QMydGKm8IRk++Bx35hdgly53weYadvLOyTJ+AiBuY3L24AYfHrYKh+Rh2rhBTcorIER4Z7FoT9hVOl97XQK7HsO9hUFMV++2ZqJSM5WbDdqycHck+ZEZj0U4YLPb9SDTI05FdexsKKwqQkRAhGbMhiEhahGWZoWjUOElDiShJmIzJo8UNJkGh9+CxJenQhceIjhKvCEZ0RqVgyAr9kr1j358l2ZWPaNTdjchbWK/tbsKWnApYUzao6sfBQSgjOWweqRuOgn3q/s0M+3o9G0PMaDWZ7R0C1s/wYb2JvbDPQWHtqMcbnyZiacYD+GHkEPaOo7OBI0fTaMi9tR2HdrzJnvQeTJ08RvxeUChiHsvCcl2kSpbd1cvtSFq7n107zGRmivBpmI/huEmdF4SPg9moFvq7o/xL8jv3T7DM2ojNuamIFxLEBiF41PcQKQx459H5tVNNEgRBEARBEA6oVT3Cb7jx82ukbwaynv8lUiQDQ+QC2j9sQjtXru1yG1jxddd5dlU0CNGxH4UvdGFZie1oQIGwWEyIcDQG5ZVDF3vx2fN83PQB+y4Prw9mt67Fh/c+iPjQm0Rnw6FfI0k4NcCf5w4EvjJZiqfe/zGef+JHDqcPsBpRjGQ3Sd/kvdyahow7+iN00hRMEc7N13DQMKMmOukBTL3vhxr17Q5xtfXxw/fipWdmqRJOyo4A7aSA/pdVFdGgKRscm7OJRyZEeL1S7gnJ4ZW+DyNLV+OJ+OH25Ro2ApGCt0BrW8clfHHmFJOncCTEjMBX+/+EMp5XYuE9CA26gK5zX7HP8L4wDBYmIy/gcWzO4REel9B1np/44eCgkFGcJt/BsGmPI0cxlnmTSga+8Fcb2jtUET6CQZ6HzY08QmaZg+xzWF8ZOpD9fxx7j39il3PiW9ZvT/IXZ86gQxVCHxQ+FokPT0CEz2EgXaw/t7juz1934Rx7dMHpBB4VUY7zy36jcuRwNORIiKDgR47GoHDV40hSTlXhfA1L+ycwh6VieUq03W8qsmkXMWPFNxfuwoOzIhGsOBu02kROhqnh6Pq2G+dP8rb6jLUFb2+JoNswNjFRQ5bd1csgRM9bJEZnwYT6Dz9jT6hG6u+RalmU5XcHG/BWIjeFlUW6wrEdhSk5bQiCIAiCIAi3OOnmhK9wBVXMyB+WOg8L4tQGFrvWthub1u8F4jLw5APqbP2S0s0NwtBTqP5DEyb/LosZ/GKIs6LQJ0Q7n9SgKPMuDEU5IV3CeNxmqsY2PITHnI5U8/e5/YXf83WUFAEFxbZy2mDXlfwAdyvh3I5cMjHjTjCS3azKu6LfLQifyK3dT9F6xvm4RKupAe/EPuCw9cId4irnf9bd7eBIYCgJ7LSSAgZSVlUuBC3ZEJCdTQyfVso9wI+iXFsOk1ZUCeeLM2jlj6a5rUNycDHDcGLIMWx8ZxJ+x/NK8EtKbolYjLu5weGaJOuaDgrbkZBxC+fhASeHgGjgJwgOJDWqkzBclcUN/SKY4c6N2MZyrH2xwbYNol80Fv4yXsO554FLp/Dudp5MU0sW5DJyZ8EgnKzegncm59kcOUqEi+N3L6Jj/5+wuoofOZqh4SxhxnjGZrQcKkSqgxNRdlbZR8wEIXjkSMF5oYxNWm2iyL2Go6vfHZgwfQJ7cQBFa19W5XgIRvTChYh3lGW39cIIDkNEJG8IragM1sea30Nb+mxbf5bktzHsfqQtmKRyxDC6W1G9qYKVewpWPJmECIdHIQiCIAiCIJwhlSlQrCbsfoEpqHz1bOYk1Wp7F0z6dcia8TTqE36NV0sWIFrL2IwcgNO1r+DUzDRME6IFOLKxqR0VoL1yaENcYWPfjTyHOn0YFmgZS/4+t59YLQ14sfBvmPRSjhQV4ci3+LrzvGgAu1wZlKMlGC5X5d1xMwaFahvufBV3f/U3eMRrx4kULr0ByMx9yOEITHcJ7DiBlPUbdFo62f9uIkYUZxP7FN9S0COLrBdg2l3ODPDxWDg/3imqRCjzx0bU8+fS2tYhy7tuLIKaO/DvS22RKbI8h80ag84/n9C8pu04sR0JqZ3AkiE7ODAa4cPFvmJ3EoZmWTjncab1U+m1AyETkf48D6HnOU3WoLi61X6bgI+4XxGXyzgCQ0+/gc2nfoRfqPuzHJnh+N2uo6hcvQ1mD0eOOiM7q1xFzNicDc6yLW+dcCX3QxGXnousuDCgsRRPFb/uOjkiw2OkAI9oSIgQXra3ngGPX1FgfcCg74/5Sn+W5ZfLWRIS1GOtSY/irAzk14/Hyld/i0VOjleCIAiCIAhCC+91TEIDZkA17sJ6ZZVuEFNM+UkKPPv4DCSv7sCU0p2oXrMAMQ4r8dazp9HMv/bPI/hrv9lYbBcy7u7c/Ev4vPUDjZVDGVnZH4IhzBgalqLTNvz8fG5/4HvT1z29DyPzn3JYBVVzAR3tbcKrsHF34lYtyVQlHnR1lKJ75NB1x+MS+Sru/+Kd6MkY77Xj5CyO1exCIzOK0nXRtmzwwr9xmJi+WXAWmMvSMZG9Z59xPoCyXvoc7Ue5heUi7J+hGOAuj430g65jqOKRKi5Pj5BlVvu5ZHmHYTeOhT+kcpzJ8hyGCMt7OBH9E9U1Vd4JLceJHNHgMoEl+4h8tKZikLJ7ejwJg9F1Ek2CJatlVPdHaPxCrCpMZU/Wil35a/Gi1qkGXqEqo2ZuDTlq43Mc+OtApCk5OTiy08rxu8xw3rsdZbx7axr1blAiC7QiQRiKXGpsPej+CIfqmpkM8K0sozTlLig0HotX5Qi5Scy7SvCMOrLDDg/1InAThoePFl+e7cRXyn349q0taE960OYIleVXfm7hdBF+GkQmYpNLYZlSgJ3Vv8XCGNUWM4IgCIIgCMItpDcFhCrbvnkz0idOQVYVXxEegti8ajQfWouMpGj7cFoBWVFmXzNNwCPzou1XVZVVXC0jyRYurr1yKK8sfglz5DQkR2gZWf4+t+8IjoTiI4gucOdIsOemoSEaiRWt6D7xNmoFI9nNSrRb+iFk8DDh1YVzXbakkt3N2GOMxVJfwt0VY9MbtPZ8i/hf1oEYGqLVtp04UfemIFtujWWfcGW02rCa6lBW5soItck74uZivk69PUWWZzMaz96NFHUbKIar+7wTrhNYyr8bidR5CdJzq5JaunLkKOVlL10Z1aw1R6f8Es9n8YwMBmx+ahsa/TkBwMsywnwB339kpkOUkCuno1xGX/OK2MrtygmhPI9TvTC5+6sJ1qE8L8UETIoU+5kzQQge/RBylcgO5wSXAh7qReQGDBg0mJWScfI8uoR9DqzvGN/A3sGPYL4qwkBxZuE4ytLjEZVVhdPsroNin4Sh+TWszUhCdA84TgmCIAiCIK4ntHU0wktUhklmBY62HEJl7qNISkrCVHUSRVxCd7cq+ZvyPWbkOB2PqFLotYwdTyuH8nWXRijH3+f2DdGR8D4Scpc4JH/TQl5ldHWU4Xk07f0zGpnpELciAw9oOkk88R0MHMSz0DPbTD6hgiepW6vHiAX3uQh3d4F0QoFwxJ7Dv+Z9hWLSP10h9gnHJlYjN36o8DWRAMqq5H2whe3b0XUCe6UQ/p7b+y3nYHCVBLEVtVUHmFQxNLcj2Ixb3az77KM/FHmdgMzMqfbP+/nfcZgbrppONdlR4MqpxlCiKdKRqTgp5G0irlfP+d76HRtqWHnVUSEXYKoqh159IgQ/pnXxcqzgYfvm3aipdzyC0DM249x9bo2w1MVIi1PLEEMZCxy/K5fxJtw6aIDrQb77DExK3gKOqyMhZWxRUfbOhouwNDagc9RAnHqDPY9De1lNtSjRq7eM8MiOx5AnnMbAjPuaw+CHmKpxXy8yQRgQMpiVknHhPLq+tgrbqf6kD0OaXXJFWz0qR+lW5iKVjXdJU+2dptbu7h48uYYgCIIgCOLaxqWeSfiGufk0zmotTApnvP8n5m3/yBZWrxgBP8LMBMckgnLUgPZqtrLCppnkjqn7UtK+sMz5mO6Fwe3Tc/sAdyT8seIkpuX+3DnZYtffoHdajeyHYSNGMhNPG2XlOy4DefMdIjm8RrWSKYRF8+0Nr+PMI4+7yOPgD7awfdfh2YGUdTBGRN4uvXZEDm/nTohldiuzgeEmf0B3G/Qv1mFAwr+x52Rl1tqOoHJwOa4yK0kmdT9Fqp2xbHWfgwFfoPUw70OuIgc6YdyxBWVIRWH+dJWTwk3eDAEmE4Zd2NrIHsqu/rlDpMn+RAhOcBSmzrqHvXDcOuMNKmeBZiSAHHngmNdERNkq5XIrQzvqD36ADo3+bbW8h5e3/w3WgSo3jJJrQ26nL2Gse0+1DcEWFaUem/iRkXv+LxqTvmMRn8fOCcrL+DHecqqbQRg/9X7R6Xa0HR12Fz3Vi41+w8Mxkb/gxzme/RDVbMz58WLnk2IUNI6FFbkIS9M2rJy3HR/7M+ARBEEQBEFch7jW0ggvGIxonU40Tg3rUVBSC6Oy0seUU6Me5St/hmXN8Vg/f7yyeioaAcxIWq7KNC4jh/cKRtINOFF3RGUMOO4jZoaP/iVsNfJVSPG6mLTPdVi9iH/P7R3MEGirQcG6Djy0dJ5DzgV2zWRA+Zq/YtB4ZwOw3+hJmB93AfVNJ1X5BRhypvUwZhiuSg0gIaRqJfMkMz4+exvbzsTj0R5NuCYbXO5Pm/C/rDdj9A+nIg4foOljud05vN7FEzjCZudglaMTwtqBhpIMREVloVyRF2+RDfDjqK3ZjSZBVric1KI4uwKdsx/F2DONTC7FyAVmjaNG5SyyOQwcIwxUx486OQzsczCg4yBerjvDSikhbTPRNjZ5EtE/YW3RvzSOPJVlnxnajnXP69C4DbnZ22COy0aFOvmokLvgOA68+3cxAsMJNxESLlE5C4T+2gnj1peg75D6opITwtHRwrFFZszSfQ9BJwxokL+HYYicxE9NYLZzVSlKthhg6pZqzmqBUV/O+udJ6OZPt0scqkQDCO3Un9WFAR8O/65t5V4+JQa2U2R4JMDLh25B6tRb0K48DytLtxFVVUZWV6JztPXAETTLz+CAc5JQD/WiyQeo3GTAnelafSYIIdEJmCUMeHuRX1CKGqNFkSWrxQh9+X8hZdkJTFo/D9HCs4jjWF5iItJK6l3kdSAIgiAIgri+cdS6CJ9gSmrcT1CQGslem9FYtgJzlWR80dDN3YFz8YWoXjNHpbTLRoCLkHE5tPumG9H59w9hjfm+apVNDhcXz+P/vOlN1A+ZpTr2UVqtdXPcoIg/z+0NfHVvO1alP80MiacxI3acdE9bYsLY5JWoj03WPn4xeBweXjYPEbU1qGqSlH2+8r1xrXhWfsVKr/MuuOKGkMEYxV9c2I/1/wsseEw6grCnUKJOPJw24XdZgxA8fgaWZQ1VGfbcSbMfG58pQX3Cc6hwPKaS860Fx3fzAPUD2P7uKR9X0G3OJ/Ou3+ARQVaYnCxpRISQVDNIkktmZIa0o3bPJSTcKxu/bhwG7vbFK4Yru8/pA6h+/w5msKryKQSPQVLGbNxkOQ5Dg0ky8Hk9NKCqeDmSK4G0feuRY5fYlGOTfXNZGV7Ut4nf5UZ2TQmy5pYDmUXYWeJwfKlwakI7GovWY2NNk2Rccnmvwqb17yEuKxfpTga/B5QyMqwdaHq5Gh/d91MlSkY27rVzO8h9fSAGdX6Ed61RiFOia27CyMnzxFMTeILIogwky31xnA5L6oYhI99RRmxbGDg8cuHNrolIUTvalJMxumA68hb0e7dhy54b8WAKd1zJY9NADA0+h8Z9FtzzwHjb+/wYzY2vKU5LITKCO83isvF8+kR7x6eHerFjwCCE8mLG/RjLchdpHDkrETIRaQULRAdqYxmenqvDOGlcGqdbgspzCdhU/ayqz32DtreqscvM8zrsw7HPKVyBIAiCIAjCEScVlfCRoBFIyi9FRWEm4qS3EDYbK9a/hJ2GF5E7J8YhkaGsdLsw+CXlOGziUNx2x0SHpGAhuCvmB0whbkTR2j/BEDQJs+JUxpKcFNDlcYMqfH5uT4irujmP/IYp4NJbmrhLqMb3UmehZNNUXNr2M1HZj12OuqHzsNNO0fefoIGDcCt/EZGMJ1VHEPYUyjYTD+HZAZWV79V/4jlsmvoNtjFDTnDSpNVhaNom1w6gftFYtK0UqWFhGDU4GDdIb3sHM8DjH0dlaZYkK5GYvaJU9Zz9EDI0lP3fhsPvdiL20URVvcpGr0a7u8uJcEMwBo/iHeFWDB0RiweSvmvv9AkKRczCNfjzkgnoMqxGrGAYjkPypuMI4Un1KnJc5+ngsr/6v7GzNAGW1TPE7477GSq/GIuFO6tRkTvLKRmf9exZ3FjwFpqPFUA34DCKJ/Pfi4bu+U8x6dlNKHkiwfeEpRduxOCJ3KFnwfv1LQiasQBzlHZn/UkI9XeV20GKFgkbgRtvG4PJdrlOePUk4ImSTShdMVs0oDlxmSis2Id9a7Vk5AYMHHGX2L7/NOF9yyjMjL/dvr1u+T7mSAknaw9/AtyZhEWP3SOVW5aBL1l7n0FY8mTxN6zn8OmNy/B28x6s1vXHu8UpkgG/AWcn5Tg7bThu68WBASEYOmQBSos17mNHfwxPykFlRSEyBScLh8vx77FRs81vxugfpWA26y9xWcmI9TSeEgRBEARBXIfc0NLSIuTAJojrgktGlC89gAm/9WR8XHtYO/QoWNCAydtW9mCOCIIgCIIgCIIgrkccl6cI4hqmC21/fg/D8hZeZ46ELpgaqlCSuxO3/DYL08iRQBAEQRAEQRBEgJAzgbg+4KdTvFyF97+f4jpk+hrFanoTZYb+mF7yR40cAgRBEARBEARBEL5D2xyIaxJ+NOW6nGJ8nvYHrIw0YcemV3F+zn/iCTKmCYIgCIIgCIIgAoacCcQ1SDeM5VmYW9Qo/hk2Gys35OKxGPskdQRBEARBEARBEIR/kG1FXIPcjNE/nIo4hCGOH/NX/VssJEcCQRAEQRAEQRBEj0GRCQRBEARBEARBEARB+AQt1hIEQRAEQRAEQRAE4RPkTCAIgiAIgiAIgiAIwifImUAQBEEQBEEQBEEQhE+QM4EgCIIgCIIgCIIgCJ8gZwJBEARBEARBEARBED5BzgSCIAiCIAiCIAiCIHyCnAkEQRAEQRAEQRAEQfgEORMIgiAIgiAIgiAIgvAJciYQBEEQBEEQBEEQBOET5EwgCIIgCIIgCIIgCMIHgP8f7V0eQFa/0d8AAAAASUVORK5CYII=;" vertex="1" parent="1">
                    <mxGeometry y="30" width="736.24" height="60" as="geometry"/>
                </mxCell>
                <mxCell id="4" value="&lt;ul style=&quot;font-size: 16px&quot;&gt;&lt;li style=&quot;font-size: 16px&quot;&gt;suma&lt;/li&gt;&lt;li style=&quot;font-size: 16px&quot;&gt;producto&lt;/li&gt;&lt;li style=&quot;font-size: 16px&quot;&gt;serie_n&lt;/li&gt;&lt;/ul&gt;" style="text;strokeColor=none;fillColor=none;html=1;whiteSpace=wrap;verticalAlign=middle;overflow=hidden;fontSize=16;" vertex="1" parent="1">
                    <mxGeometry x="10" y="210" width="110" height="120" as="geometry"/>
                </mxCell>
                <mxCell id="20" value="" style="edgeStyle=none;html=1;fontSize=16;" edge="1" parent="1" source="5" target="8">
                    <mxGeometry relative="1" as="geometry"/>
                </mxCell>
                <mxCell id="5" value="Inicio" style="rounded=1;whiteSpace=wrap;html=1;fontSize=16;" vertex="1" parent="1">
                    <mxGeometry x="400" y="80" width="120" height="60" as="geometry"/>
                </mxCell>
                <mxCell id="22" value="" style="edgeStyle=none;html=1;fontSize=16;" edge="1" parent="1" target="7">
                    <mxGeometry relative="1" as="geometry">
                        <mxPoint x="460.00173076923056" y="610" as="sourcePoint"/>
                    </mxGeometry>
                </mxCell>
                <mxCell id="WlHVkuZl2VL6BsMWSVmr-50" value="" style="edgeStyle=none;html=1;fontSize=16;" edge="1" parent="1" target="WlHVkuZl2VL6BsMWSVmr-49">
                    <mxGeometry relative="1" as="geometry">
                        <mxPoint x="385" y="565" as="sourcePoint"/>
                    </mxGeometry>
                </mxCell>
                <mxCell id="WlHVkuZl2VL6BsMWSVmr-46" value="" style="edgeStyle=none;html=1;fontSize=16;" edge="1" parent="1" source="7" target="WlHVkuZl2VL6BsMWSVmr-32">
                    <mxGeometry relative="1" as="geometry"/>
                </mxCell>
                <mxCell id="WlHVkuZl2VL6BsMWSVmr-48" value="" style="edgeStyle=none;html=1;fontSize=16;" edge="1" parent="1" source="7" target="WlHVkuZl2VL6BsMWSVmr-47">
                    <mxGeometry relative="1" as="geometry"/>
                </mxCell>
                <mxCell id="7" value="si 19 &amp;lt; serie_n &amp;lt; 401" style="html=1;whiteSpace=wrap;aspect=fixed;shape=isoRectangle;fontSize=16;" vertex="1" parent="1">
                    <mxGeometry x="368.34" y="640" width="183.33" height="110" as="geometry"/>
                </mxCell>
                <mxCell id="26" value="" style="edgeStyle=none;html=1;fontSize=16;" edge="1" parent="1" source="8" target="24">
                    <mxGeometry relative="1" as="geometry"/>
                </mxCell>
                <mxCell id="8" value="serie_n = 0&lt;br&gt;&lt;span style=&quot;font-family: &amp;#34;helvetica&amp;#34;&quot;&gt;suma = 0&amp;nbsp;&lt;/span&gt;&lt;br style=&quot;font-family: &amp;#34;helvetica&amp;#34;&quot;&gt;&lt;span style=&quot;font-family: &amp;#34;helvetica&amp;#34;&quot;&gt;producto = 1&lt;/span&gt;" style="shape=parallelogram;perimeter=parallelogramPerimeter;whiteSpace=wrap;html=1;fixedSize=1;fontSize=16;" vertex="1" parent="1">
                    <mxGeometry x="390" y="170" width="140" height="70" as="geometry"/>
                </mxCell>
                <mxCell id="WlHVkuZl2VL6BsMWSVmr-39" value="" style="edgeStyle=none;html=1;fontSize=16;" edge="1" parent="1" source="11">
                    <mxGeometry relative="1" as="geometry">
                        <mxPoint x="460" y="520" as="targetPoint"/>
                    </mxGeometry>
                </mxCell>
                <mxCell id="11" value="suma = suma + serie_n&lt;br&gt;producto = producto * serie_n" style="rounded=0;whiteSpace=wrap;html=1;fontSize=16;" vertex="1" parent="1">
                    <mxGeometry x="350" y="390" width="220" height="90" as="geometry"/>
                </mxCell>
                <mxCell id="WlHVkuZl2VL6BsMWSVmr-40" value="" style="edgeStyle=none;html=1;fontSize=16;" edge="1" parent="1" source="24" target="11">
                    <mxGeometry relative="1" as="geometry"/>
                </mxCell>
                <mxCell id="24" value="serie_n = serie_n + 1" style="rounded=0;whiteSpace=wrap;html=1;fontSize=16;" vertex="1" parent="1">
                    <mxGeometry x="375" y="290" width="170" height="70" as="geometry"/>
                </mxCell>
                <mxCell id="WlHVkuZl2VL6BsMWSVmr-35" value="" style="edgeStyle=none;html=1;fontSize=16;" edge="1" parent="1" source="WlHVkuZl2VL6BsMWSVmr-32" target="WlHVkuZl2VL6BsMWSVmr-33">
                    <mxGeometry relative="1" as="geometry"/>
                </mxCell>
                <mxCell id="WlHVkuZl2VL6BsMWSVmr-52" value="" style="edgeStyle=none;html=1;fontSize=16;" edge="1" parent="1" source="WlHVkuZl2VL6BsMWSVmr-32" target="WlHVkuZl2VL6BsMWSVmr-51">
                    <mxGeometry relative="1" as="geometry"/>
                </mxCell>
                <mxCell id="WlHVkuZl2VL6BsMWSVmr-32" value="si serie_n &amp;gt;400" style="html=1;whiteSpace=wrap;aspect=fixed;shape=isoRectangle;fontSize=16;" vertex="1" parent="1">
                    <mxGeometry x="385" y="790" width="150" height="90" as="geometry"/>
                </mxCell>
                <mxCell id="WlHVkuZl2VL6BsMWSVmr-33" value="Imprimir suma, producto" style="shape=document;whiteSpace=wrap;html=1;boundedLbl=1;fontSize=16;" vertex="1" parent="1">
                    <mxGeometry x="400" y="910" width="120" height="80" as="geometry"/>
                </mxCell>
                <mxCell id="WlHVkuZl2VL6BsMWSVmr-36" value="" style="shape=curlyBracket;whiteSpace=wrap;html=1;rounded=1;fontSize=16;" vertex="1" parent="1">
                    <mxGeometry x="590" y="190" width="20" height="120" as="geometry"/>
                </mxCell>
                <UserObject label="%date{ddd mmm dd yyyy HH:MM:ss}%" placeholders="1" id="WlHVkuZl2VL6BsMWSVmr-37">
                    <mxCell style="text;html=1;strokeColor=none;fillColor=none;align=center;verticalAlign=middle;whiteSpace=wrap;overflow=hidden;fontSize=16;" vertex="1" parent="1">
                        <mxGeometry x="600" y="190" width="160" height="20" as="geometry"/>
                    </mxCell>
                </UserObject>
                <UserObject label="#Se crean las variables con sus respectivos valores los cuales son: &quot;serie_n = 0&quot;, &quot;suma = 0&quot;, &quot;producto = 1&quot; y se le coloca" placeholders="1" name="Variable" id="WlHVkuZl2VL6BsMWSVmr-38">
                    <mxCell style="text;html=1;strokeColor=none;fillColor=none;align=left;verticalAlign=middle;whiteSpace=wrap;overflow=hidden;fontSize=16;" vertex="1" parent="1">
                        <mxGeometry x="610" y="230" width="230" height="400" as="geometry"/>
                    </mxCell>
                </UserObject>
                <mxCell id="WlHVkuZl2VL6BsMWSVmr-47" value="" style="shape=waypoint;sketch=0;size=6;pointerEvents=1;points=[];fillColor=default;resizable=0;rotatable=0;perimeter=centerPerimeter;snapToPoint=1;fontSize=16;" vertex="1" parent="1">
                    <mxGeometry x="176.67499999999995" y="675" width="40" height="40" as="geometry"/>
                </mxCell>
                <mxCell id="WlHVkuZl2VL6BsMWSVmr-49" value="" style="shape=waypoint;sketch=0;size=6;pointerEvents=1;points=[];fillColor=default;resizable=0;rotatable=0;perimeter=centerPerimeter;snapToPoint=1;fontSize=16;" vertex="1" parent="1">
                    <mxGeometry x="210" y="545" width="40" height="40" as="geometry"/>
                </mxCell>
                <mxCell id="WlHVkuZl2VL6BsMWSVmr-51" value="" style="shape=waypoint;sketch=0;size=6;pointerEvents=1;points=[];fillColor=default;resizable=0;rotatable=0;perimeter=centerPerimeter;snapToPoint=1;fontSize=16;" vertex="1" parent="1">
                    <mxGeometry x="210" y="815" width="40" height="40" as="geometry"/>
                </mxCell>
            </root>
        </mxGraphModel>
    </diagram>
</mxfile>